<svg width="386" height="273" viewBox="0 0 386 273" fill="none" xmlns="http://www.w3.org/2000/svg">
<g clip-path="url(#clip0_3001_489)">
<path d="M374 7L380 13L386 7" stroke="#D6D6D6" stroke-width="2" stroke-linecap="round" stroke-linejoin="round"/>
</g>
<path d="M137.816 70.4437C68.7455 94.1426 19.6952 159.685 21.0265 235.952" stroke="#AFC2AE" stroke-width="14" stroke-linecap="square"/>
<path d="M342.93 148.939C341.452 145.752 339.463 143.016 337.746 140.235C331.082 129.44 323.132 121.021 314.1 111.745C299.72 96.9779 282.904 85.3353 264.466 76.5209C252.174 70.6446 239.386 66.6206 226.101 64.449" stroke="#AFC2AE" stroke-width="14" stroke-linecap="square"/>
<path d="M364.626 234.194C364.629 231.867 364.584 229.542 364.494 227.223C364.48 226.872 364.465 226.521 364.449 226.17C363.946 215.022 362.201 202.787 359.146 190.963C356.657 181.328 353.184 171.975 349.739 163.638" stroke="#AFC2AE" stroke-width="14" stroke-linecap="square"/>
<path d="M210.61 61.9537C209.716 61.7836 206.677 61.3668 205.96 61.3084C202.218 61.0035 198.67 60.876 195.215 60.9012C193.325 60.9149 183.069 61.0186 179.954 61.3084C173.182 61.9387 166.435 62.6944 159.708 64.0246C158.708 64.2225 153.677 65.2592 152.289 65.7288" stroke="#AFC2AE" stroke-width="14" stroke-linecap="square"/>
<g clip-path="url(#clip1_3001_489)">
<path d="M153.18 158H154.711V153.96L158.19 148.136H156.488L154.007 152.436H153.891L151.409 148.136H149.707L153.18 153.96V158ZM162.656 158.144C164.83 158.144 166.163 156.688 166.163 154.295V154.281C166.163 151.889 164.823 150.433 162.656 150.433C160.482 150.433 159.143 151.896 159.143 154.281V154.295C159.143 156.688 160.476 158.144 162.656 158.144ZM162.656 156.906C161.378 156.906 160.66 155.942 160.66 154.295V154.281C160.66 152.634 161.378 151.67 162.656 151.67C163.928 151.67 164.652 152.634 164.652 154.281V154.295C164.652 155.936 163.928 156.906 162.656 156.906ZM171.408 158.144C172.488 158.144 173.24 157.679 173.596 156.879H173.712V158H175.188V150.576H173.712V154.931C173.712 156.127 173.076 156.872 171.887 156.872C170.8 156.872 170.349 156.264 170.349 155.033V150.576H168.865V155.382C168.865 157.139 169.733 158.144 171.408 158.144ZM178.328 158H179.812V153.563C179.812 152.49 180.584 151.793 181.719 151.793C181.999 151.793 182.252 151.827 182.519 151.882V150.515C182.368 150.48 182.108 150.446 181.869 150.446C180.878 150.446 180.188 150.911 179.921 151.697H179.812V150.576H178.328V158ZM189.933 158H191.327V150.761H191.437L194.328 158H195.463L198.361 150.761H198.464V158H199.858V148.136H198.095L194.95 156.004H194.841L191.696 148.136H189.933V158ZM206.307 158.144C208.48 158.144 209.813 156.688 209.813 154.295V154.281C209.813 151.889 208.474 150.433 206.307 150.433C204.133 150.433 202.793 151.896 202.793 154.281V154.295C202.793 156.688 204.126 158.144 206.307 158.144ZM206.307 156.906C205.028 156.906 204.311 155.942 204.311 154.295V154.281C204.311 152.634 205.028 151.67 206.307 151.67C207.578 151.67 208.303 152.634 208.303 154.281V154.295C208.303 155.936 207.578 156.906 206.307 156.906ZM212.584 158H214.067V153.646C214.067 152.449 214.744 151.704 215.831 151.704C216.918 151.704 217.431 152.312 217.431 153.543V158H218.907V153.194C218.907 151.424 217.991 150.433 216.33 150.433C215.25 150.433 214.539 150.911 214.177 151.704H214.067V150.576H212.584V158ZM225.096 158.144C226.996 158.144 228.021 157.05 228.268 156.072L228.281 156.011L226.853 156.018L226.825 156.072C226.647 156.455 226.08 156.927 225.13 156.927C223.906 156.927 223.127 156.1 223.1 154.678H228.363V154.158C228.363 151.93 227.092 150.433 225.021 150.433C222.949 150.433 221.609 151.984 221.609 154.302V154.309C221.609 156.66 222.922 158.144 225.096 158.144ZM225.027 151.649C226.032 151.649 226.777 152.292 226.894 153.618H223.12C223.25 152.34 224.016 151.649 225.027 151.649ZM231.688 160.611C233.191 160.611 233.943 160.058 234.572 158.287L237.334 150.576H235.775L233.923 156.51H233.793L231.934 150.576H230.334L233.027 158.007L232.918 158.39C232.699 159.142 232.282 159.436 231.592 159.436C231.421 159.436 231.236 159.429 231.093 159.408V160.577C231.284 160.598 231.503 160.611 231.688 160.611Z" fill="black"/>
<path d="M103.153 204.391H105.112V201.618C109.312 201.303 112.616 198.995 112.616 194.944V194.911C112.616 191.392 110.226 189.599 105.859 188.586L105.112 188.403V181.447C107.221 181.746 108.682 183.008 108.914 185.066V185.1L112.351 185.083V185.066C112.201 181.331 109.229 178.774 105.112 178.426V175.637H103.153V178.426C98.9863 178.758 96.0312 181.215 96.0312 184.917V184.95C96.0312 188.304 98.3057 190.196 102.506 191.176L103.153 191.342V198.597C100.48 198.314 99.2354 196.87 98.9531 194.944V194.911L95.5 194.928V194.944C95.6328 198.896 98.9531 201.286 103.153 201.618V204.391ZM99.5342 184.685V184.651C99.5342 183.141 100.779 181.763 103.153 181.447V187.938C100.53 187.274 99.5342 186.162 99.5342 184.685ZM109.097 195.243V195.276C109.097 197.036 107.918 198.381 105.112 198.613V191.79C108.167 192.521 109.097 193.533 109.097 195.243ZM118.646 202H134.783V198.829H123.71V198.497L128.79 193.434C133.14 189.117 134.401 187.025 134.401 184.303V184.253C134.401 180.302 131.114 177.463 126.648 177.463C121.834 177.463 118.447 180.551 118.431 184.934L118.464 184.967H121.95L121.967 184.917C121.967 182.294 123.76 180.534 126.449 180.534C129.072 180.534 130.683 182.261 130.683 184.602V184.651C130.683 186.594 129.77 187.822 126.599 191.126L118.646 199.477V202ZM148.965 202.581C154.012 202.581 157.564 199.194 157.564 194.28V194.247C157.564 189.648 154.344 186.295 149.845 186.295C147.637 186.295 145.761 187.225 144.748 188.835H144.466L145.196 181.198H156.203V178.044H142.274L141.079 191.956H144.283C144.565 191.408 144.947 190.943 145.379 190.562C146.325 189.698 147.57 189.267 149.031 189.267C151.92 189.267 154.012 191.358 154.012 194.313V194.347C154.012 197.352 151.953 199.46 148.998 199.46C146.375 199.46 144.466 197.783 144.15 195.675L144.134 195.542H140.647L140.664 195.758C140.996 199.643 144.25 202.581 148.965 202.581ZM161.387 208.226H163.927L166.683 198.48H162.848L161.387 208.226ZM183.902 202H187.488V197.235H190.792V194.081H187.488V178.044H182.192C178.889 183.008 175.369 188.669 172.215 194.081V197.235H183.902V202ZM175.784 194.147V193.915C178.241 189.715 181.163 185.05 183.736 181.182H183.952V194.147H175.784ZM204.758 202.448C209.838 202.448 213.44 199.493 213.44 195.376V195.343C213.44 191.989 211.083 189.864 207.563 189.549V189.466C210.485 188.852 212.61 186.859 212.61 183.888V183.854C212.61 180.152 209.489 177.596 204.725 177.596C200.043 177.596 196.855 180.269 196.49 184.303L196.474 184.485H199.96L199.977 184.319C200.209 182.062 202.068 180.65 204.725 180.65C207.431 180.65 208.991 182.012 208.991 184.336V184.369C208.991 186.594 207.132 188.204 204.393 188.204H201.587V191.093H204.509C207.696 191.093 209.655 192.604 209.655 195.31V195.343C209.655 197.7 207.68 199.344 204.758 199.344C201.786 199.344 199.777 197.816 199.545 195.642L199.528 195.476H195.976L195.992 195.675C196.308 199.643 199.645 202.448 204.758 202.448ZM227.556 202.581C233.067 202.581 236.404 197.75 236.404 190.03V189.997C236.404 182.277 233.067 177.463 227.556 177.463C222.027 177.463 218.707 182.277 218.707 189.997V190.03C218.707 197.75 222.027 202.581 227.556 202.581ZM227.556 199.493C224.335 199.493 222.459 195.891 222.459 190.03V189.997C222.459 184.137 224.335 180.567 227.556 180.567C230.76 180.567 232.652 184.137 232.652 189.997V190.03C232.652 195.891 230.76 199.493 227.556 199.493ZM243.464 202.249C244.842 202.249 245.888 201.187 245.888 199.842C245.888 198.48 244.842 197.418 243.464 197.418C242.086 197.418 241.023 198.48 241.023 199.842C241.023 201.187 242.086 202.249 243.464 202.249ZM259.854 202.448C264.934 202.448 268.536 199.493 268.536 195.376V195.343C268.536 191.989 266.179 189.864 262.659 189.549V189.466C265.581 188.852 267.706 186.859 267.706 183.888V183.854C267.706 180.152 264.585 177.596 259.82 177.596C255.139 177.596 251.951 180.269 251.586 184.303L251.569 184.485H255.056L255.072 184.319C255.305 182.062 257.164 180.65 259.82 180.65C262.526 180.65 264.087 182.012 264.087 184.336V184.369C264.087 186.594 262.228 188.204 259.488 188.204H256.683V191.093H259.604C262.792 191.093 264.751 192.604 264.751 195.31V195.343C264.751 197.7 262.775 199.344 259.854 199.344C256.882 199.344 254.873 197.816 254.641 195.642L254.624 195.476H251.071L251.088 195.675C251.403 199.643 254.74 202.448 259.854 202.448ZM282.436 177.463C277.405 177.463 273.753 180.982 273.753 185.797V185.83C273.753 190.412 277.04 193.799 281.605 193.799C284.859 193.799 287.034 192.089 287.897 190.163H288.229C288.229 190.346 288.213 190.528 288.213 190.711C288.03 195.492 286.337 199.427 282.303 199.427C280.062 199.427 278.501 198.265 277.82 196.438L277.771 196.272H274.068L274.118 196.472C274.898 200.091 278.053 202.581 282.303 202.581C288.229 202.581 291.766 197.8 291.766 189.682V189.648C291.766 180.85 287.233 177.463 282.436 177.463ZM282.419 190.794C279.53 190.794 277.422 188.669 277.422 185.73V185.697C277.422 182.825 279.663 180.584 282.469 180.584C285.291 180.584 287.499 182.875 287.499 185.797V185.813C287.499 188.702 285.291 190.794 282.419 190.794Z" fill="#222523"/>
</g>
<defs>
<clipPath id="clip0_3001_489">
<rect width="386" height="19" fill="white"/>
</clipPath>
<clipPath id="clip1_3001_489">
<rect width="202" height="64" fill="white" transform="translate(92 145)"/>
</clipPath>
</defs>
</svg>
