<svg width="386" height="273" viewBox="0 0 386 273" fill="none" xmlns="http://www.w3.org/2000/svg">
<g clip-path="url(#clip0_3106_2)">
<path d="M12 266L6 260L0 266" stroke="#D6D6D6" stroke-width="2" stroke-linecap="round" stroke-linejoin="round"/>
</g>
<path d="M248.184 202.556C317.255 178.857 366.305 113.315 364.974 37.0475" stroke="#AFC2AE" stroke-width="14" stroke-linecap="square"/>
<path d="M43.07 124.061C44.5483 127.248 46.5372 129.984 48.2537 132.765C54.9178 143.56 62.8683 151.979 71.9003 161.255C86.28 176.022 103.096 187.665 121.534 196.479C133.826 202.355 146.614 206.379 159.899 208.551" stroke="#AFC2AE" stroke-width="14" stroke-linecap="square"/>
<path d="M21.3736 38.8056C21.3712 41.1331 21.4156 43.4575 21.5062 45.7773C21.5199 46.1283 21.5347 46.4791 21.5505 46.8299C22.0537 57.9781 23.7988 70.2133 26.8535 82.0367C29.3429 91.6718 32.8163 101.025 36.2607 109.362" stroke="#AFC2AE" stroke-width="14" stroke-linecap="square"/>
<path d="M175.39 211.046C176.284 211.216 179.323 211.633 180.04 211.692C183.782 211.996 187.33 212.124 190.785 212.099C192.675 212.085 202.931 211.981 206.046 211.692C212.818 211.061 219.565 210.306 226.292 208.975C227.292 208.777 232.323 207.741 233.711 207.271" stroke="#AFC2AE" stroke-width="14" stroke-linecap="square"/>
<defs>
<clipPath id="clip0_3106_2">
<rect width="386" height="19" fill="white" transform="matrix(-1 0 0 -1 386 273)"/>
</clipPath>
</defs>
</svg>
