<svg width="33" height="33" viewBox="0 0 33 33" fill="none" xmlns="http://www.w3.org/2000/svg">
<g clip-path="url(#clip0_1178_8398)">
<path d="M30.5652 8.12012H29.0452V14.2101H30.5652V8.12012Z" fill="black"/>
<path d="M29.0451 14.21H27.5251V15.74H29.0451V14.21Z" fill="black"/>
<path d="M29.0451 6.6001H27.5251V8.1201H29.0451V6.6001Z" fill="black"/>
<path d="M25.9951 20.31H29.0451V21.83H25.9951V26.41H29.0451V27.93H25.9951V30.98H27.5251V29.45H30.5651V24.88H27.5251V23.36H30.5651V18.79H27.5251V15.74H25.9951V20.31Z" fill="black"/>
<path d="M25.9952 30.98H22.9452V32.5H25.9952V30.98Z" fill="black"/>
<path d="M21.4252 5.07005V6.60005H24.4752V8.12005H21.4252V12.69H27.5252V8.12005H25.9952V6.60005H27.5252V5.07005H25.9952V3.55005H24.4752V5.07005H21.4252ZM24.4752 11.17H22.9502V9.64005H24.4802L24.4752 11.17Z" fill="black"/>
<path d="M24.4752 2.02002H22.9452V3.55002H24.4752V2.02002Z" fill="black"/>
<path d="M22.9452 15.74H21.4252V14.21H19.9052V17.26H21.4252V30.98H22.9452V15.74Z" fill="black"/>
<path d="M21.4252 6.6001H19.9052V8.1201H21.4252V6.6001Z" fill="black"/>
<path d="M16.8551 9.64012V12.6901H18.3751V14.2101H19.9051V8.12012H18.3751V9.64012H16.8551Z" fill="black"/>
<path d="M19.9051 17.26H15.3251V18.79H19.9051V17.26Z" fill="black"/>
<path d="M18.3751 6.6001H15.3251V8.1201H18.3751V6.6001Z" fill="black"/>
<path d="M22.9451 0.5H15.3251V2.02H22.9451V0.5Z" fill="black"/>
<path d="M16.8551 23.3601H15.3251V24.8801H16.8551V23.3601Z" fill="black"/>
<path d="M15.3252 24.8799H13.8052V26.4099H15.3252V24.8799Z" fill="black"/>
<path d="M15.3252 21.8301H13.8052V23.3601H15.3252V21.8301Z" fill="black"/>
<path d="M15.3252 18.79H13.8052V20.31H15.3252V18.79Z" fill="black"/>
<path d="M15.3252 8.12012H13.8052V9.64012H15.3252V8.12012Z" fill="black"/>
<path d="M15.3252 2.02002H13.8052V3.55002H15.3252V2.02002Z" fill="black"/>
<path d="M13.8052 26.4099H12.2852V27.9299H13.8052V26.4099Z" fill="black"/>
<path d="M13.8052 20.3101H12.2852V21.8301H13.8052V20.3101Z" fill="black"/>
<path d="M13.8052 9.63989H12.2852V15.7399H13.8052V9.63989Z" fill="black"/>
<path d="M13.8052 3.55005H12.2852V8.12005H13.8052V3.55005Z" fill="black"/>
<path d="M12.2851 24.8799H10.7551V26.4099H12.2851V24.8799Z" fill="black"/>
<path d="M12.2851 15.74H10.7551V17.26H12.2851V15.74Z" fill="black"/>
<path d="M10.7551 23.3601H9.23511V24.8801H10.7551V23.3601Z" fill="black"/>
<path d="M10.7551 17.26H9.23511V18.79H10.7551V17.26Z" fill="black"/>
<path d="M9.23509 24.8799H7.71509V26.4099H9.23509V24.8799Z" fill="black"/>
<path d="M9.23509 18.79H7.71509V20.31H9.23509V18.79Z" fill="black"/>
<path d="M7.71518 26.4099H6.18518V27.9299H7.71518V26.4099Z" fill="black"/>
<path d="M7.71518 20.3101H6.18518V21.8301H7.71518V20.3101Z" fill="black"/>
<path d="M6.18516 24.8799H4.66516V26.4099H6.18516V24.8799Z" fill="black"/>
<path d="M6.18516 21.8301H4.66516V23.3601H6.18516V21.8301Z" fill="black"/>
<path d="M4.66513 23.3601H3.13513V24.8801H4.66513V23.3601Z" fill="black"/>
</g>
<defs>
<clipPath id="clip0_1178_8398">
<rect width="32" height="32" fill="white" transform="translate(0.850098 0.5)"/>
</clipPath>
</defs>
</svg>
