<svg width="33" height="33" viewBox="0 0 33 33" fill="none" xmlns="http://www.w3.org/2000/svg">
<g clip-path="url(#clip0_1178_6628)">
<path d="M32.0901 24.1201H30.5701V27.1701H32.0901V24.1201Z" fill="white"/>
<path d="M32.0901 14.97H30.5701V18.02H32.0901V14.97Z" fill="white"/>
<path d="M32.0901 5.83008H30.5701V8.88008H32.0901V5.83008Z" fill="white"/>
<path d="M30.5702 27.1702H12.2802V28.6902H30.5702V27.1702Z" fill="white"/>
<path d="M30.5702 18.02H12.2802V19.55H30.5702V18.02Z" fill="white"/>
<path d="M30.5702 8.88013H12.2802V10.4001H30.5702V8.88013Z" fill="white"/>
<path d="M30.5702 22.5901H12.2802V24.1201H30.5702V22.5901Z" fill="white"/>
<path d="M30.5702 13.45H12.2802V14.97H30.5702V13.45Z" fill="white"/>
<path d="M30.5702 4.31006H12.2802V5.83006H30.5702V4.31006Z" fill="white"/>
<path d="M12.2801 24.1201H10.7601V27.1701H12.2801V24.1201Z" fill="white"/>
<path d="M12.2801 14.97H10.7601V18.02H12.2801V14.97Z" fill="white"/>
<path d="M12.2801 5.83008H10.7601V8.88008H12.2801V5.83008Z" fill="white"/>
<path d="M1.61011 27.1701H3.14011V28.6901H6.19011V27.1701H7.71011V24.1201H6.19011V22.5901H3.14011V24.1201H1.61011V27.1701Z" fill="white"/>
<path d="M1.61011 18.02H3.14011V19.55H6.19011V18.02H7.71011V14.97H6.19011V13.45H3.14011V14.97H1.61011V18.02Z" fill="white"/>
<path d="M3.14011 5.83006H1.61011V8.88006H3.14011V10.4001H6.19011V8.88006H7.71011V5.83006H6.19011V4.31006H3.14011V5.83006Z" fill="white"/>
</g>
<defs>
<clipPath id="clip0_1178_6628">
<rect width="32" height="32" fill="white" transform="translate(0.850098 0.5)"/>
</clipPath>
</defs>
</svg>
