<svg width="33" height="33" viewBox="0 0 33 33" fill="none" xmlns="http://www.w3.org/2000/svg">
<g clip-path="url(#clip0_1178_9045)">
<path d="M31.3351 4.30493H29.8151V28.6949H31.3351V4.30493Z" fill="black"/>
<path d="M29.8151 28.6948H28.2851V30.2148H29.8151V28.6948Z" fill="black"/>
<path d="M29.8151 2.78491H28.2851V4.30491H29.8151V2.78491Z" fill="black"/>
<path d="M2.38511 30.2149H3.90511V31.7349H28.2851V30.2149H19.1451V27.1649H17.6251V25.6449H20.6751V24.1149H17.6251V22.5999H16.1001V18.0299H11.5301V14.9799H13.0601V13.4599H14.5801V10.3999H16.1001V7.35489H17.6301V2.78489H28.2901V1.26489H3.90511V2.78489H2.38511V4.30489H0.865112V28.6999H2.38511V30.2149ZM6.95511 8.88489H8.48511V11.9249H6.95511V8.88489ZM6.95511 21.0749H8.48511V22.5999H10.0001V24.1199H16.1001V25.6499H10.0001V24.1199H8.48511V22.5999H6.95511V21.0749Z" fill="black"/>
<path d="M25.2451 8.88501H23.7151V11.925H25.2451V8.88501Z" fill="black"/>
<path d="M23.7151 21.075H22.1951V22.5949H23.7151V21.075Z" fill="black"/>
<path d="M22.1951 22.595H20.6751V24.115H22.1951V22.595Z" fill="black"/>
</g>
<defs>
<clipPath id="clip0_1178_9045">
<rect width="32" height="32" fill="white" transform="translate(0.100098 0.5)"/>
</clipPath>
</defs>
</svg>
