<svg width="33" height="32" viewBox="0 0 33 32" fill="none" xmlns="http://www.w3.org/2000/svg">
<g clip-path="url(#clip0_1128_4820)">
<path d="M32.6454 21.33H31.1154V22.86H32.6454V21.33Z" fill="white"/>
<path d="M31.1154 13.72H25.0254V7.62001H26.5454V6.10001H25.0254V4.57001H8.26539V6.10001H6.73539V7.62001H5.21539V9.14001H3.69539V10.67H2.16539V12.19H0.645386V16.76H2.16539V15.24H9.78539V18.29H11.3054V21.33H12.8354V24.38H14.3554V27.43H15.8854V15.24H21.9754V18.29H20.4554V21.33H18.9254V24.38H17.4054V27.43H15.8854V28.95H14.3554V30.48H15.8854V32H17.4054V30.48H18.9254V28.95H20.4554V27.43H21.9754V25.91H23.5054V24.38H25.0254V22.86H26.5454V21.33H28.0754V19.81H29.5954V18.29H31.1154V16.76H32.6454V12.19H31.1154V13.72ZM21.9754 13.72H11.3054V12.19H9.78539V6.10001H15.8854V7.62001H17.4054V9.14001H18.9254V10.67H20.4554V12.19H21.9754V13.72Z" fill="white"/>
<path d="M31.1154 25.91H29.5954V27.43H31.1154V25.91Z" fill="white"/>
<path d="M31.1154 10.67H29.5954V12.19H31.1154V10.67Z" fill="white"/>
<path d="M29.5954 27.43H28.0754V28.95H29.5954V27.43Z" fill="white"/>
<path d="M29.5954 24.38H28.0754V25.91H29.5954V24.38Z" fill="white"/>
<path d="M29.5954 9.14001H28.0754V10.67H29.5954V9.14001Z" fill="white"/>
<path d="M28.0754 3.04999H26.5454V4.56999H28.0754V6.09999H29.5954V4.56999H31.1154V3.04999H29.5954V1.51999H28.0754V3.04999Z" fill="white"/>
<path d="M28.0754 25.91H26.5454V27.43H28.0754V25.91Z" fill="white"/>
<path d="M28.0754 7.62H26.5454V9.14H28.0754V7.62Z" fill="white"/>
<path d="M25.0254 30.48H23.5054V32H25.0254V30.48Z" fill="white"/>
<path d="M25.0254 0H23.5054V1.52H25.0254V0Z" fill="white"/>
<path d="M15.8854 7.62H14.3554V9.14H15.8854V7.62Z" fill="white"/>
<path d="M15.8854 1.51999H14.3554V3.04999H15.8854V1.51999Z" fill="white"/>
<path d="M14.3554 27.43H12.8354V28.95H14.3554V27.43Z" fill="white"/>
<path d="M14.3554 9.14001H12.8354V10.67H14.3554V9.14001Z" fill="white"/>
<path d="M12.8354 25.91H11.3054V27.43H12.8354V25.91Z" fill="white"/>
<path d="M12.8354 10.67H11.3054V12.19H12.8354V10.67Z" fill="white"/>
<path d="M11.3054 28.95H9.7854V30.48H11.3054V28.95Z" fill="white"/>
<path d="M11.3054 24.38H9.7854V25.91H11.3054V24.38Z" fill="white"/>
<path d="M9.78538 22.86H8.26538V24.38H9.78538V22.86Z" fill="white"/>
<path d="M8.26541 21.33H6.73541V22.86H8.26541V21.33Z" fill="white"/>
<path d="M6.73539 19.81H5.21539V21.33H6.73539V19.81Z" fill="white"/>
<path d="M6.73539 3.04999H5.21539V4.56999H6.73539V3.04999Z" fill="white"/>
<path d="M3.69541 24.38V25.91H2.16541V27.43H3.69541V28.95H5.21541V27.43H6.73541V25.91H5.21541V24.38H3.69541Z" fill="white"/>
<path d="M5.21537 18.29H3.69537V19.81H5.21537V18.29Z" fill="white"/>
<path d="M5.21537 4.57001H3.69537V6.10001H5.21537V4.57001Z" fill="white"/>
<path d="M5.21537 1.51999H3.69537V3.04999H5.21537V1.51999Z" fill="white"/>
<path d="M3.69541 16.76H2.16541V18.29H3.69541V16.76Z" fill="white"/>
<path d="M3.69541 3.04999H2.16541V4.56999H3.69541V3.04999Z" fill="white"/>
<path d="M2.16539 21.33H0.645386V22.86H2.16539V21.33Z" fill="white"/>
</g>
<defs>
<clipPath id="clip0_1128_4820">
<rect width="32" height="32" fill="white" transform="translate(0.645386)"/>
</clipPath>
</defs>
</svg>
