<svg width="33" height="33" viewBox="0 0 33 33" fill="none" xmlns="http://www.w3.org/2000/svg">
<g clip-path="url(#clip0_1178_5586)">
<path d="M29.8002 5.07007H28.2802V21.8301H29.8002V5.07007Z" fill="black"/>
<path d="M28.2801 21.8301H26.7501V24.8801H28.2801V21.8301Z" fill="black"/>
<path d="M26.7501 24.8799H25.2301V26.3999H26.7501V24.8799Z" fill="black"/>
<path d="M11.5102 5.07005H8.47019V6.60005H6.94019V21.83H8.47019V15.74H16.0902V27.93H14.5602V29.4501H19.1302V27.93H22.1802V26.4H23.7002V24.88H25.2302V21.83H26.7502V6.60005H25.2302V15.74H17.6102V5.07005H22.1802V3.55005H11.5102V5.07005Z" fill="black"/>
<path d="M28.2801 3.55005H25.2301V5.07005H28.2801V3.55005Z" fill="black"/>
<path d="M25.2302 26.3999H23.7002V27.9299H25.2302V26.3999Z" fill="black"/>
<path d="M23.7002 27.9299H22.1802V29.4499H23.7002V27.9299Z" fill="black"/>
<path d="M25.2302 5.07007H22.1802V6.60007H25.2302V5.07007Z" fill="black"/>
<path d="M25.2302 2.02002H22.1802V3.55002H25.2302V2.02002Z" fill="black"/>
<path d="M22.1801 29.45H19.1301V30.9799H22.1801V29.45Z" fill="black"/>
<path d="M19.1301 30.98H14.5601V32.5H19.1301V30.98Z" fill="black"/>
<path d="M14.5603 29.45H11.5103V30.9799H14.5603V29.45Z" fill="black"/>
<path d="M14.5603 26.3999H11.5103V27.9299H14.5603V26.3999Z" fill="black"/>
<path d="M22.1803 0.5H11.5103V2.02H22.1803V0.5Z" fill="black"/>
<path d="M11.5102 27.9299H9.99023V29.4499H11.5102V27.9299Z" fill="black"/>
<path d="M11.5102 24.8799H9.99023V26.3999H11.5102V24.8799Z" fill="black"/>
<path d="M11.5102 2.02002H8.47021V3.55002H11.5102V2.02002Z" fill="black"/>
<path d="M9.99022 26.3999H8.47021V27.9299H9.99022V26.3999Z" fill="black"/>
<path d="M9.99022 21.8301H8.47021V24.8801H9.99022V21.8301Z" fill="black"/>
<path d="M8.47019 24.8799H6.94019V26.3999H8.47019V24.8799Z" fill="black"/>
<path d="M8.47017 3.55005H5.42017V5.07005H8.47017V3.55005Z" fill="black"/>
<path d="M6.94017 21.8301H5.42017V24.8801H6.94017V21.8301Z" fill="black"/>
<path d="M5.42015 5.07007H3.90015V21.8301H5.42015V5.07007Z" fill="black"/>
</g>
<defs>
<clipPath id="clip0_1178_5586">
<rect width="32" height="32" fill="white" transform="translate(0.850098 0.5)"/>
</clipPath>
</defs>
</svg>
