<svg width="235" height="341" viewBox="0 0 235 341" fill="none" xmlns="http://www.w3.org/2000/svg">
<g clip-path="url(#clip0_2_828)">
<rect x="235" width="341" height="235" rx="25" transform="rotate(90 235 0)" fill="#8ACD9D"/>
<path opacity="0.25" d="M235 358V150L30 255V358H235Z" fill="url(#paint0_linear_2_828)"/>
<path opacity="0.25" d="M235 385V177L30 282V385H235Z" fill="url(#paint1_linear_2_828)"/>
<path opacity="0.25" d="M235 412V204L30 309V412H235Z" fill="url(#paint2_linear_2_828)"/>
<path d="M207.323 55.0944L185.132 55.1053C182.514 55.1053 180.37 53.2356 180.37 50.9637L180.345 24.244C180.345 21.9503 182.489 20.0806 185.095 20.0806L207.286 20.0588C209.916 20.0588 212.048 21.9286 212.048 24.2114L212.073 50.9419C212.073 53.2247 209.954 55.0944 207.323 55.0944Z" fill="#F6C859"/>
<path d="M184.584 33.5709C184.584 33.4187 184.671 33.2774 184.833 33.2121C185.057 33.1143 185.344 33.1904 185.456 33.3861C185.805 33.9731 186.454 34.7666 187.563 35.2341C188.984 35.8211 190.53 35.6689 190.667 35.4189C190.705 35.3536 190.555 35.1145 190.468 34.9623C190.244 34.5818 189.932 34.0492 190.181 33.4404C190.418 32.8425 191.029 32.549 191.328 32.4077C193.261 31.4837 198.272 31.2011 200.766 32.1686C201.588 32.4947 202.087 32.9295 202.237 33.473C202.386 34.0274 202.125 34.484 201.9 34.8427C201.726 35.1362 201.651 35.2884 201.713 35.3862C201.975 35.7667 203.571 35.7558 204.83 35.2232C205.952 34.7558 206.6 33.9622 206.937 33.3752C207.049 33.1795 207.336 33.0926 207.56 33.2013C207.784 33.2991 207.884 33.5491 207.76 33.7448C207.348 34.4405 206.575 35.3971 205.216 35.9515C203.882 36.5059 201.576 36.7668 200.903 35.7993C200.566 35.3101 200.84 34.8427 201.052 34.4731C201.214 34.1905 201.377 33.9187 201.302 33.6578C201.202 33.2991 200.741 33.06 200.367 32.9078C198.185 32.0599 193.448 32.3099 191.752 33.1143C191.465 33.2556 191.154 33.4187 191.041 33.7013C190.929 33.9731 191.066 34.234 191.278 34.5927C191.49 34.9514 191.715 35.3428 191.49 35.7667C190.979 36.6798 188.748 36.6146 187.152 35.9624C185.793 35.3971 185.02 34.4514 184.609 33.7557C184.596 33.6904 184.584 33.6252 184.584 33.5709Z" fill="#A08644"/>
<path d="M199.93 32.3425V25.0484C199.93 24.8201 200.142 24.6462 200.392 24.6462C200.641 24.6462 200.853 24.8201 200.853 25.0375V32.3316C200.853 32.5599 200.641 32.7338 200.392 32.7338C200.142 32.7447 199.93 32.5708 199.93 32.3425Z" fill="#A08644"/>
<path d="M191.553 32.3425V25.0484C191.553 24.8201 191.765 24.6462 192.014 24.6462C192.276 24.6462 192.475 24.831 192.475 25.0484V32.3425C192.475 32.5708 192.263 32.7447 192.014 32.7447C191.765 32.7556 191.553 32.5708 191.553 32.3425Z" fill="#A08644"/>
<path d="M184.596 42.0825C184.596 42.0172 184.609 41.952 184.646 41.8977C185.057 41.2019 185.83 40.2453 187.189 39.6909C188.785 39.0278 191.017 38.9735 191.528 39.8757C191.765 40.2997 191.528 40.7019 191.328 41.0498C191.116 41.4194 190.979 41.6802 191.091 41.9411C191.216 42.2455 191.578 42.4194 191.802 42.5281C193.497 43.3326 198.247 43.5717 200.417 42.7238C200.791 42.5716 201.264 42.3325 201.352 41.9737C201.414 41.7563 201.663 41.615 201.913 41.6694C202.162 41.7237 202.312 41.9411 202.262 42.1585C202.112 42.7021 201.626 43.1369 200.803 43.463C198.31 44.4413 193.286 44.1587 191.366 43.2347C191.066 43.0934 190.456 42.7999 190.219 42.202C189.969 41.5933 190.281 41.0606 190.505 40.6802C190.593 40.528 190.73 40.2888 190.705 40.2236C190.568 39.9844 189.022 39.8214 187.601 40.4193C186.479 40.8867 185.83 41.6802 185.494 42.2673C185.382 42.4629 185.095 42.5499 184.87 42.4412C184.683 42.376 184.596 42.2346 184.596 42.0825Z" fill="#A08644"/>
<path d="M201.8 40.4519C201.8 40.2779 201.925 40.1257 202.112 40.0714C205.104 39.2018 207.411 41.2345 207.785 41.8868C207.909 42.0824 207.809 42.3325 207.585 42.4303C207.361 42.5281 207.074 42.452 206.962 42.2564C206.787 41.9629 204.955 40.0931 202.411 40.8323C202.162 40.9084 201.9 40.7888 201.825 40.5714C201.8 40.5388 201.8 40.4953 201.8 40.4519Z" fill="#A08644"/>
<path d="M199.943 50.5941V43.3C199.943 43.0717 200.155 42.8978 200.404 42.8978C200.654 42.8978 200.865 43.0826 200.865 43.3V50.5941C200.865 50.8224 200.654 50.9963 200.404 50.9963C200.155 50.9963 199.943 50.8115 199.943 50.5941Z" fill="#A08644"/>
<path d="M191.578 50.5941V43.3C191.578 43.0717 191.79 42.8978 192.039 42.8978C192.301 42.8978 192.5 43.0826 192.5 43.3V50.5941C192.5 50.8224 192.288 50.9963 192.039 50.9963C191.777 50.9963 191.578 50.8224 191.578 50.5941Z" fill="#A08644"/>
<path d="M208.664 282.244V294.447H183.602V282.244H208.664Z" fill="#FF5F00"/>
<path d="M170.987 273.993H173.644C174.662 273.993 175.326 273.45 175.326 272.52C175.326 272.056 175.149 271.552 174.574 271.203C175.061 270.932 175.326 270.545 175.326 269.964C175.326 269.576 175.194 269.189 174.707 268.879H175.238V268.065H170.987V268.879H173.334C174.087 268.879 174.441 269.228 174.441 269.77C174.441 270.312 174.042 270.584 173.334 270.584H170.987V271.397H173.334C174.087 271.397 174.441 271.784 174.441 272.288C174.441 272.831 174.042 273.102 173.334 273.102H170.987V273.993V273.993ZM175.238 286.041V284.724H176.522V283.91H175.238V283.174H174.397V283.91H172.448C171.474 283.91 170.899 284.259 170.899 285.188C170.899 285.537 171.031 285.924 171.208 286.196L172.006 285.963C171.829 285.731 171.784 285.46 171.784 285.266C171.784 284.879 172.05 284.724 172.493 284.724H174.397V286.041H175.238V286.041ZM175.327 292.936C175.327 292.472 175.061 292.162 174.707 291.968H175.238V291.154H170.987V291.968H173.378C174.087 291.968 174.485 292.239 174.485 292.743C174.485 292.898 174.441 293.091 174.397 293.246L175.282 293.479C175.326 293.324 175.326 293.091 175.326 292.936H175.327ZM174.884 282.515C175.194 282.128 175.326 281.586 175.326 281.005C175.326 280.075 174.795 279.455 173.954 279.455C173.245 279.455 172.847 279.92 172.714 280.733L172.67 281.121C172.581 281.547 172.448 281.779 172.227 281.779C171.917 281.779 171.696 281.47 171.696 280.927C171.696 280.385 171.917 279.959 172.138 279.687L171.43 279.3C171.076 279.726 170.899 280.307 170.899 280.888C170.899 281.973 171.474 282.593 172.271 282.593C173.024 282.593 173.423 282.089 173.555 281.314L173.6 280.927C173.644 280.578 173.732 280.307 173.998 280.307C174.308 280.307 174.485 280.578 174.485 281.005C174.485 281.47 174.264 281.934 174.131 282.167L174.884 282.515V282.515ZM175.326 304.132C175.326 303.667 175.061 303.358 174.707 303.164H175.238V302.35H170.987V303.164H173.378C174.087 303.164 174.485 303.435 174.485 303.938C174.485 304.094 174.441 304.287 174.397 304.442L175.282 304.675C175.326 304.52 175.326 304.287 175.326 304.132V304.132ZM173.113 293.75C171.829 293.75 170.899 294.525 170.899 295.726C170.899 296.268 171.031 296.655 171.386 297.043L172.138 296.655C171.873 296.346 171.74 296.036 171.74 295.687C171.74 295.028 172.271 294.564 173.113 294.564C173.909 294.564 174.441 295.028 174.485 295.687C174.485 296.036 174.352 296.346 174.087 296.655L174.839 297.043C175.194 296.655 175.326 296.268 175.326 295.726C175.326 294.525 174.397 293.75 173.113 293.75ZM173.113 301.266H175.238V300.452H174.707C175.105 300.181 175.326 299.793 175.326 299.29C175.326 298.244 174.397 297.43 173.113 297.43C171.829 297.43 170.899 298.244 170.899 299.29C170.899 299.832 171.12 300.22 171.519 300.452H170.987V301.266H173.113V301.266ZM173.113 298.283C173.865 298.283 174.485 298.709 174.485 299.406C174.485 300.065 173.909 300.53 173.113 300.53C172.36 300.53 171.74 300.065 171.74 299.406C171.784 298.709 172.36 298.283 173.113 298.283V298.283ZM175.326 288.559C175.326 287.474 174.441 286.699 173.113 286.699C171.784 286.699 170.899 287.474 170.899 288.598C170.899 289.14 171.076 289.682 171.474 290.109L172.138 289.721C171.873 289.411 171.696 289.024 171.696 288.636C171.696 288.133 171.961 287.629 172.714 287.513V290.263H173.068C174.441 290.302 175.326 289.605 175.326 288.559V288.559ZM174.53 288.559C174.53 289.062 174.175 289.411 173.511 289.489V287.552C174.087 287.629 174.53 287.978 174.53 288.559ZM173.113 308.742H176.921V307.929H174.707C175.105 307.658 175.326 307.27 175.326 306.767C175.326 305.721 174.397 304.907 173.113 304.907C171.829 304.907 170.899 305.721 170.899 306.767C170.899 307.309 171.12 307.696 171.519 307.929H170.987V308.742H173.113V308.742ZM173.113 305.759C173.865 305.759 174.485 306.185 174.485 306.883C174.485 307.541 173.909 308.006 173.113 308.006C172.36 308.006 171.74 307.541 171.74 306.883C171.784 306.185 172.36 305.759 173.113 305.759V305.759ZM173.113 278.564H175.238V277.75H174.707C175.105 277.479 175.326 277.092 175.326 276.588C175.326 275.542 174.397 274.729 173.113 274.729C171.829 274.729 170.899 275.542 170.899 276.588C170.899 277.131 171.12 277.518 171.519 277.75H170.987V278.564H173.113V278.564ZM173.113 275.542C173.865 275.542 174.485 275.968 174.485 276.666C174.485 277.324 173.909 277.789 173.113 277.789C172.36 277.789 171.74 277.324 171.74 276.666C171.784 275.968 172.36 275.542 173.113 275.542V275.542Z" fill="white"/>
<path d="M196.133 283.019C201.225 283.019 205.741 285.111 208.664 288.326C210.789 285.963 212.073 282.98 212.073 279.726C212.073 272.016 204.944 265.779 196.133 265.779C187.321 265.779 180.192 272.016 180.192 279.726C180.192 282.98 181.476 285.963 183.602 288.326C186.48 285.111 191.041 283.019 196.133 283.019V283.019Z" fill="#EB001B"/>
<path d="M196.133 310.911C187.321 310.911 180.192 304.674 180.192 296.965C180.192 293.711 181.476 290.728 183.602 288.365C186.524 291.619 191.041 293.672 196.133 293.672C201.225 293.672 205.741 291.58 208.664 288.365C210.789 290.728 212.073 293.711 212.073 296.965C212.073 304.674 204.9 310.911 196.133 310.911V310.911Z" fill="#F79E1B"/>
</g>
<defs>
<linearGradient id="paint0_linear_2_828" x1="241" y1="179" x2="30" y2="254" gradientUnits="userSpaceOnUse">
<stop stop-color="white"/>
<stop offset="1" stop-color="white" stop-opacity="0"/>
</linearGradient>
<linearGradient id="paint1_linear_2_828" x1="241" y1="206" x2="30" y2="281" gradientUnits="userSpaceOnUse">
<stop stop-color="white"/>
<stop offset="1" stop-color="white" stop-opacity="0"/>
</linearGradient>
<linearGradient id="paint2_linear_2_828" x1="241" y1="233" x2="30" y2="308" gradientUnits="userSpaceOnUse">
<stop stop-color="white"/>
<stop offset="1" stop-color="white" stop-opacity="0"/>
</linearGradient>
<clipPath id="clip0_2_828">
<rect x="235" width="341" height="235" rx="25" transform="rotate(90 235 0)" fill="white"/>
</clipPath>
</defs>
</svg>
