<svg width="33" height="33" viewBox="0 0 33 33" fill="none" xmlns="http://www.w3.org/2000/svg">
<g clip-path="url(#clip0_1178_9176)">
<path d="M30.5802 15.74H29.0502V23.36H30.5802V15.74Z" fill="black"/>
<path d="M27.5301 24.8899H29.0501V23.3599H27.5301V15.7399H29.0501V14.2199H27.5301V11.1699H26.0001V14.2199H6.20015V11.1699H4.67015V14.2199H3.15015V15.7399H4.67015V23.3599H3.15015V24.8899H4.67015V26.4099H6.20015V15.7399H26.0001V26.4099H27.5301V24.8899Z" fill="black"/>
<path d="M27.5301 0.5H26.0001V2.03H27.5301V0.5Z" fill="black"/>
<path d="M26.0001 26.4099H24.4801V27.9299H26.0001V26.4099Z" fill="black"/>
<path d="M26.0001 8.12012H24.4801V11.1701H26.0001V8.12012Z" fill="black"/>
<path d="M26.0001 2.03003H24.4801V3.55003H26.0001V2.03003Z" fill="black"/>
<path d="M24.4801 6.6001H22.9601V8.1201H24.4801V6.6001Z" fill="black"/>
<path d="M24.4801 3.55005H22.9601V5.08005H24.4801V3.55005Z" fill="black"/>
<path d="M21.4302 30.9799H22.9602V29.4599H24.4802V27.9299H21.4302V30.9799Z" fill="black"/>
<path d="M22.9602 5.08008H19.9102V6.60008H22.9602V5.08008Z" fill="black"/>
<path d="M21.4301 30.98H18.3901V32.5H21.4301V30.98Z" fill="black"/>
<path d="M13.8101 27.9299V30.9799H15.3401V29.4599H16.8601V30.9799H18.3901V27.9299H13.8101Z" fill="black"/>
<path d="M19.9102 3.55005H12.2902V5.08005H19.9102V3.55005Z" fill="black"/>
<path d="M13.8101 30.98H10.7701V32.5H13.8101V30.98Z" fill="black"/>
<path d="M22.9601 12.6901V9.65012H21.4301V8.12012H10.7701V9.65012H9.24011V12.6901H22.9601ZM18.3901 9.65012H19.9101V11.1701H18.3901V9.65012ZM12.2901 9.65012H13.8101V11.1701H12.2901V9.65012Z" fill="black"/>
<path d="M12.2901 5.08008H9.24011V6.60008H12.2901V5.08008Z" fill="black"/>
<path d="M7.72009 27.9299V29.4599H9.24009V30.9799H10.7701V27.9299H7.72009Z" fill="black"/>
<path d="M9.24009 6.6001H7.72009V8.1201H9.24009V6.6001Z" fill="black"/>
<path d="M9.24009 3.55005H7.72009V5.08005H9.24009V3.55005Z" fill="black"/>
<path d="M7.72007 26.4099H6.20007V27.9299H7.72007V26.4099Z" fill="black"/>
<path d="M7.72007 8.12012H6.20007V11.1701H7.72007V8.12012Z" fill="black"/>
<path d="M7.72007 2.03003H6.20007V3.55003H7.72007V2.03003Z" fill="black"/>
<path d="M6.20017 0.5H4.67017V2.03H6.20017V0.5Z" fill="black"/>
<path d="M3.15012 15.74H1.62012V23.36H3.15012V15.74Z" fill="black"/>
</g>
<defs>
<clipPath id="clip0_1178_9176">
<rect width="32" height="32" fill="white" transform="translate(0.100098 0.5)"/>
</clipPath>
</defs>
</svg>
