<svg width="33" height="33" viewBox="0 0 33 33" fill="none" xmlns="http://www.w3.org/2000/svg">
<g clip-path="url(#clip0_1178_16876)">
<path d="M32.8501 18.7849H31.3301V20.3149H32.8501V18.7849Z" fill="black"/>
<path d="M31.3302 17.2649H28.2802V18.7849H31.3302V17.2649Z" fill="black"/>
<path d="M29.8002 14.2148H28.2802V15.7448H29.8002V14.2148Z" fill="black"/>
<path d="M23.7101 15.7449V12.6949H22.1901V11.1649H20.6601V8.1249H22.1901V6.5949H28.2801V8.1249H29.8001V14.2149H31.3301V5.0749H29.8001V3.5449H28.2801V2.0249H22.1901V3.5449H20.6601V5.0749H19.1401V9.6449H14.5701V5.0749H13.0401V3.5449H11.5201V2.0249H5.42013V3.5449H3.90013V5.0749H2.38013V14.2149H3.90013V8.1249H5.42013V6.5949H11.5201V8.1249H13.0401V11.1649H11.5201V12.6949H10.0001V15.7449H5.42013V17.2649H10.0001V23.3549H11.5201V15.7449H13.0401V14.2149H20.6601V15.7449H22.1901V23.3549H23.7101V17.2649H28.2801V15.7449H23.7101Z" fill="black"/>
<path d="M26.7601 29.4548H25.2301V30.9748H26.7601V29.4548Z" fill="black"/>
<path d="M25.2302 27.9348H23.7102V29.4548H25.2302V27.9348Z" fill="black"/>
<path d="M23.7102 26.4048H20.6602V27.9348H23.7102V26.4048Z" fill="black"/>
<path d="M22.1902 23.355H20.6602V24.885H22.1902V23.355Z" fill="black"/>
<path d="M20.6601 17.2649H19.1401V20.3149H20.6601V17.2649Z" fill="black"/>
<path d="M20.66 24.885H13.04V26.405H20.66V24.885Z" fill="black"/>
<path d="M19.1401 21.835H14.5701V23.355H19.1401V21.835Z" fill="black"/>
<path d="M14.57 17.2649H13.04V20.3149H14.57V17.2649Z" fill="black"/>
<path d="M13.04 23.355H11.52V24.885H13.04V23.355Z" fill="black"/>
<path d="M13.04 26.4048H10V27.9348H13.04V26.4048Z" fill="black"/>
<path d="M10.0002 27.9348H8.47021V29.4548H10.0002V27.9348Z" fill="black"/>
<path d="M8.4702 29.4548H6.9502V30.9748H8.4702V29.4548Z" fill="black"/>
<path d="M5.42015 14.2148H3.90015V15.7448H5.42015V14.2148Z" fill="black"/>
<path d="M5.42013 17.2649H2.38013V18.7849H5.42013V17.2649Z" fill="black"/>
<path d="M2.3801 18.7849H0.850098V20.3149H2.3801V18.7849Z" fill="black"/>
</g>
<defs>
<clipPath id="clip0_1178_16876">
<rect width="32" height="32" fill="white" transform="translate(0.850098 0.5)"/>
</clipPath>
</defs>
</svg>
